<svg viewBox="0 0 30000 11317" version="1.1" xmlns="http://www.w3.org/2000/svg">
<path fill="#000" d="M27726 8340V7139l2274-4161h-1276l-1512 2917h-65l-1544-2917h-1298l2274 4161v1201h1147zm-5367-4075h75l837 2102h-1748l836-2102zm-525-1287l-2381 5362h1212l418-954h2638l419 954h1244l-2381-5362h-1169zm-3959 2938h-1502V3997h1427c300 0 557 107 729 310 129 172 225 397 225 655 0 268-86 493-246 675-151 183-366 279-633 279zm2027-954c0-547-215-1019-558-1362-375-397-901-622-1501-622h-2617v5362h1147V6935h1470c600 0 1147-247 1523-633 332-354 536-826 536-1340zM9589 6066V2978H8442v3142c0 396-129 708-333 922-214 225-514 365-890 365-364 0-665-129-901-375-225-226-343-537-343-912V2978H4828v3088c0 654 257 1244 675 1684 418 418 987 676 1716 676 676 0 1234-236 1652-622 461-440 718-1051 718-1738zM0 2978v5362h1148V6238h2670V5219H1148V4007h3002V2978H0z"/>
<path fill="#4384d0" d="M9724 2978L12407 0l2684 2978h-1263v3507l-2917-3507H9724zm5367 5362l-2684 2977-2683-2977h1273V4822l2906 3518h1188z"/>
</svg>